<svg width="32" height="32" viewBox="0 0 32 32" fill="none" xmlns="http://www.w3.org/2000/svg">
<path fill-rule="evenodd" clip-rule="evenodd" d="M4.90965 4.90623L16 0.312458L27.0903 4.90623L31.6855 16L27.0903 27.0938L16 31.6875L4.90965 27.0938L0.314464 16L4.90965 4.90623ZM16 0L27.3137 4.68629L32 16L27.3137 27.3137L16 32L4.68629 27.3137L0 16L4.68629 4.68629L16 0ZM13.8508 12.8081C13.5505 12.7458 13.1805 12.7147 12.7407 12.7147C12.0215 12.7147 11.3722 12.853 10.7927 13.1298C10.2202 13.4066 9.76989 13.7975 9.44175 14.3026C9.1136 14.8007 8.94953 15.375 8.94953 16.0254C8.94953 16.6965 9.11011 17.2915 9.43127 17.8105C9.75244 18.3294 10.1993 18.7341 10.7718 19.0247C11.3513 19.3084 12.0076 19.4502 12.7407 19.4502C13.1526 19.4502 13.5156 19.4156 13.8298 19.3465C14.151 19.2773 14.4931 19.1562 14.8561 18.9832C14.898 18.9555 14.926 18.9313 14.9399 18.9106C14.9539 18.8898 14.9644 18.8379 14.9713 18.7549L15.0761 17.6133C15.0761 17.5925 15.0516 17.5821 15.0028 17.5821C14.9679 17.5821 14.9504 17.589 14.9504 17.6029C14.7619 18.1702 14.4896 18.5923 14.1335 18.869C13.7775 19.1458 13.3132 19.2842 12.7407 19.2842C12.2031 19.2842 11.7039 19.1389 11.2431 18.8483C10.7892 18.5577 10.4262 18.1633 10.1539 17.6652C9.88858 17.1601 9.75593 16.6066 9.75593 16.0046C9.75593 15.375 9.87811 14.8249 10.1225 14.3545C10.3668 13.877 10.7124 13.5103 11.1593 13.2543C11.6061 12.9983 12.1228 12.8703 12.7092 12.8703C13.8263 12.8703 14.5455 13.4481 14.8666 14.6035C14.8736 14.6243 14.8945 14.6347 14.9295 14.6347C14.9713 14.6277 14.9923 14.6139 14.9923 14.5932L14.8666 13.3581C14.8527 13.2751 14.8422 13.2232 14.8352 13.2025C14.8282 13.1817 14.8003 13.1575 14.7514 13.1298C14.4512 12.9776 14.151 12.8703 13.8508 12.8081ZM23.2086 19.253C23.2086 19.2115 23.1982 19.1908 23.1772 19.1908C22.9119 19.1908 22.7164 19.1735 22.5907 19.1389C22.4651 19.1043 22.3778 19.0386 22.3289 18.9417C22.287 18.8379 22.2661 18.6822 22.2661 18.4747V13.6695C22.2661 13.4619 22.287 13.3097 22.3289 13.2128C22.3778 13.116 22.4651 13.0502 22.5907 13.0156C22.7164 12.9741 22.9119 12.9534 23.1772 12.9534C23.1982 12.9534 23.2086 12.9326 23.2086 12.8911C23.2086 12.8496 23.1982 12.8288 23.1772 12.8288L22.6641 12.8392C22.3708 12.853 22.1299 12.86 21.9414 12.86C21.732 12.86 21.4737 12.853 21.1665 12.8392L20.6742 12.8288C20.6533 12.8288 20.6428 12.8496 20.6428 12.8911C20.6428 12.9326 20.6533 12.9534 20.6742 12.9534C20.9465 12.9534 21.1455 12.9741 21.2712 13.0156C21.3969 13.0572 21.4806 13.1298 21.5225 13.2336C21.5714 13.3305 21.5958 13.4827 21.5958 13.6902V15.8282H17.5743V13.6902C17.5743 13.4827 17.5953 13.3305 17.6371 13.2336C17.686 13.1298 17.7733 13.0572 17.899 13.0156C18.0316 12.9741 18.2306 12.9534 18.4959 12.9534C18.5099 12.9534 18.5169 12.9326 18.5169 12.8911C18.5169 12.8496 18.5099 12.8288 18.4959 12.8288L17.9932 12.8392C17.686 12.853 17.4312 12.86 17.2287 12.86C17.0542 12.86 16.8203 12.853 16.527 12.8392L15.9929 12.8288C15.979 12.8288 15.972 12.8496 15.972 12.8911C15.972 12.9326 15.979 12.9534 15.9929 12.9534C16.2582 12.9534 16.4537 12.9741 16.5794 13.0156C16.7051 13.0502 16.7889 13.116 16.8307 13.2128C16.8796 13.3097 16.9041 13.4619 16.9041 13.6695V18.4747C16.9041 18.6822 16.8796 18.8379 16.8307 18.9417C16.7889 19.0386 16.7016 19.1043 16.5689 19.1389C16.4433 19.1735 16.2478 19.1908 15.9825 19.1908C15.9685 19.1908 15.9615 19.2115 15.9615 19.253C15.9615 19.2946 15.9685 19.3153 15.9825 19.3153C16.2059 19.3153 16.3804 19.3119 16.5061 19.3049L17.2287 19.2946L17.9827 19.3049C18.1084 19.3119 18.2795 19.3153 18.4959 19.3153C18.5099 19.3153 18.5169 19.2946 18.5169 19.253C18.5169 19.2115 18.5099 19.1908 18.4959 19.1908C18.2236 19.1908 18.0246 19.1735 17.899 19.1389C17.7733 19.1043 17.686 19.0386 17.6371 18.9417C17.5953 18.8379 17.5743 18.6822 17.5743 18.4747V16.0461H21.5958V18.4747C21.5958 18.6822 21.5714 18.8379 21.5225 18.9417C21.4806 19.0386 21.3969 19.1043 21.2712 19.1389C21.1455 19.1735 20.9465 19.1908 20.6742 19.1908C20.6533 19.1908 20.6428 19.2115 20.6428 19.253C20.6428 19.2946 20.6533 19.3153 20.6742 19.3153C20.8837 19.3153 21.0478 19.3119 21.1665 19.3049L21.9414 19.2946L22.6641 19.3049C22.7897 19.3119 22.9608 19.3153 23.1772 19.3153C23.1982 19.3153 23.2086 19.2946 23.2086 19.253Z" fill="#A87B62"/>
</svg>
