<?xml version="1.0" encoding="UTF-8"?><!DOCTYPE svg PUBLIC "-//W3C//DTD SVG 1.1//EN" "http://www.w3.org/Graphics/SVG/1.1/DTD/svg11.dtd"><svg xmlns="http://www.w3.org/2000/svg" xmlns:xlink="http://www.w3.org/1999/xlink"><symbol id="logo"><g fill="none"><path fill-rule="evenodd" clip-rule="evenodd" d="M10.126 10.12 33 .643l22.874 9.475L65.35 33l-9.477 22.88L33 65.357 10.126 55.88.65 33l9.477-22.88ZM33 0l23.334 9.665L66 33l-9.666 23.334L33 66 9.665 56.334 0 33 9.665 9.665 33 0Zm-4.433 26.417c-.619-.129-1.382-.193-2.29-.193-1.483 0-2.822.285-4.017.856-1.18.571-2.11 1.377-2.786 2.419-.677 1.027-1.016 2.212-1.016 3.553 0 1.385.332 2.612.994 3.682.662 1.07 1.584 1.905 2.765 2.505 1.195.585 2.549.877 4.06.877.85 0 1.599-.071 2.247-.214.662-.143 1.368-.392 2.117-.75a.633.633 0 0 0 .173-.149c.028-.043.05-.15.064-.321l.216-2.355c0-.042-.05-.064-.15-.064-.073 0-.109.014-.109.043-.389 1.17-.95 2.04-1.685 2.611-.734.571-1.692.857-2.872.857-1.11 0-2.139-.3-3.09-.9-.935-.599-1.684-1.412-2.246-2.44-.547-1.041-.82-2.183-.82-3.424 0-1.3.252-2.434.756-3.404.504-.985 1.216-1.74 2.138-2.269.922-.528 1.987-.792 3.197-.792 2.304 0 3.787 1.192 4.45 3.575.014.043.057.064.129.064.086-.014.13-.043.13-.086l-.26-2.547a2.893 2.893 0 0 0-.064-.32c-.015-.044-.072-.094-.173-.15a7.457 7.457 0 0 0-1.858-.664Zm19.3 13.292c0-.085-.02-.128-.064-.128-.547 0-.95-.036-1.21-.107-.259-.071-.439-.207-.54-.407-.086-.214-.13-.535-.13-.963v-9.91c0-.429.044-.743.13-.942.101-.2.281-.336.54-.407.26-.086.663-.129 1.21-.129.043 0 .065-.043.065-.128 0-.086-.022-.129-.065-.129l-1.058.022c-.605.028-1.102.043-1.49.043-.433 0-.966-.015-1.6-.043l-1.014-.022c-.044 0-.065.043-.065.129 0 .085.021.128.065.128.561 0 .972.043 1.23.129.26.085.433.235.52.45.1.2.15.513.15.941v4.41h-8.294v-4.41c0-.428.043-.742.13-.942.1-.214.28-.364.54-.45.273-.085.684-.128 1.23-.128.03 0 .044-.043.044-.128 0-.086-.014-.129-.043-.129l-1.037.022c-.634.028-1.16.043-1.577.043-.36 0-.842-.015-1.447-.043l-1.102-.022c-.028 0-.043.043-.043.129 0 .085.015.128.043.128.548 0 .95.043 1.21.129.26.071.432.207.518.407.101.2.152.513.152.941v9.911c0 .428-.05.75-.152.963-.086.2-.266.336-.54.407-.259.071-.662.107-1.21.107-.028 0-.042.043-.042.128 0 .086.014.129.043.129.46 0 .82-.007 1.08-.022l1.49-.021 1.555.021c.26.015.612.022 1.059.022.029 0 .043-.043.043-.129 0-.085-.014-.128-.043-.128-.562 0-.972-.036-1.231-.107-.26-.071-.44-.207-.54-.407-.087-.214-.13-.535-.13-.963v-5.009h8.294v5.009c0 .428-.05.75-.15.963-.087.2-.26.336-.52.407-.258.071-.669.107-1.23.107-.044 0-.065.043-.065.128 0 .086.021.129.065.129.432 0 .77-.007 1.015-.022l1.598-.021 1.49.021c.26.015.613.022 1.059.022.043 0 .065-.043.065-.129Z" fill="#A87B62"/></g></symbol><symbol id="arrow"><g fill="none"><path d="M30 5.5H1m0 0L6.486 10M1 5.5 6.486 1" stroke="#A87B62"/></g></symbol><symbol id="bag"><g fill="none"><path d="M14 5a4 4 0 1 1-8 0M1 1h18v16H1V1Z" stroke="#1D1613" stroke-width="2" stroke-linecap="round" stroke-linejoin="round"/></g></symbol><symbol id="magnifier"><g fill="none"><path d="M11.048 10.074 14 13.024l-.975.976-2.951-2.952A6.205 6.205 0 0 1 0 6.202 6.205 6.205 0 0 1 6.203 0a6.205 6.205 0 0 1 4.845 10.074Zm-1.382-.512a4.808 4.808 0 0 0 1.36-3.36 4.823 4.823 0 0 0-4.823-4.824 4.822 4.822 0 0 0-4.825 4.825 4.823 4.823 0 0 0 4.825 4.824 4.808 4.808 0 0 0 3.36-1.361l.103-.104Z" fill="#000"/></g></symbol><symbol id="32"><g fill="none"><path fill-rule="evenodd" clip-rule="evenodd" d="M4.91 4.906 16 .312l11.09 4.594L31.686 16 27.09 27.094 16 31.687 4.91 27.095.314 16 4.91 4.906ZM16 0l11.314 4.686L32 16l-4.686 11.314L16 32 4.686 27.314 0 16 4.686 4.686 16 0Zm-2.15 12.808c-.3-.062-.67-.093-1.11-.093-.719 0-1.368.138-1.947.415a3.27 3.27 0 0 0-1.351 1.173c-.328.498-.492 1.072-.492 1.722 0 .672.16 1.267.481 1.786a3.29 3.29 0 0 0 1.34 1.214c.58.283 1.237.425 1.97.425.412 0 .775-.034 1.089-.104.321-.069.663-.19 1.026-.363a.307.307 0 0 0 .084-.072.406.406 0 0 0 .031-.156l.105-1.142c0-.02-.024-.03-.073-.03-.035 0-.053.006-.053.02-.188.567-.46.99-.816 1.266-.357.277-.82.415-1.393.415a2.755 2.755 0 0 1-1.498-.436 3.195 3.195 0 0 1-1.09-1.183 3.516 3.516 0 0 1-.397-1.66c0-.63.122-1.18.367-1.65a2.6 2.6 0 0 1 1.036-1.1c.447-.257.964-.385 1.55-.385 1.117 0 1.837.578 2.158 1.734.007.02.027.03.063.03.041-.006.062-.02.062-.04l-.125-1.236a1.38 1.38 0 0 0-.032-.155c-.007-.021-.035-.045-.084-.073-.3-.152-.6-.26-.9-.322Zm9.359 6.445c0-.041-.01-.062-.032-.062-.265 0-.46-.017-.586-.052a.39.39 0 0 1-.262-.197c-.042-.104-.063-.26-.063-.467v-4.806c0-.207.021-.36.063-.456a.39.39 0 0 1 .262-.197c.125-.042.32-.063.586-.063.021 0 .032-.02.032-.062 0-.041-.01-.062-.032-.062l-.513.01c-.293.014-.534.021-.723.021-.209 0-.467-.007-.774-.02l-.493-.011c-.02 0-.031.02-.031.062 0 .042.01.062.031.062.273 0 .471.021.597.063a.38.38 0 0 1 .252.218c.048.097.073.249.073.456v2.138h-4.022V13.69c0-.207.021-.36.063-.456a.417.417 0 0 1 .262-.218c.133-.042.332-.063.597-.063.014 0 .02-.02.02-.062 0-.041-.006-.062-.02-.062l-.503.01c-.307.014-.562.021-.764.021-.175 0-.409-.007-.702-.02l-.534-.011c-.014 0-.021.02-.021.062 0 .042.007.062.02.062.266 0 .462.021.587.063.126.034.21.1.252.197.049.097.073.249.073.457v4.805c0 .207-.024.363-.073.467-.042.097-.13.162-.262.197a2.404 2.404 0 0 1-.586.052c-.014 0-.022.02-.022.062 0 .042.008.062.021.062.224 0 .398-.003.524-.01l.723-.01.754.01c.125.007.296.01.513.01.014 0 .02-.02.02-.062 0-.041-.006-.062-.02-.062-.272 0-.471-.017-.597-.052a.39.39 0 0 1-.262-.197c-.042-.104-.063-.26-.063-.467v-2.429h4.022v2.429c0 .207-.025.363-.073.467-.042.097-.126.162-.252.197s-.325.052-.597.052c-.02 0-.031.02-.031.062 0 .042.01.062.031.062.21 0 .374-.003.492-.01l.775-.01.723.01c.126.007.297.01.513.01.021 0 .032-.02.032-.062Z" fill="#A87B62"/></g></symbol></svg>